{"title":"The Hunger Games-Mockingjay Part 2 2015 720p HD-TS x264 AC3 HQ H","uid":12834351,"size":4029430174,"categoryP":"video","categoryS":"hd___movies","magnet":"?xt=urn:btih:392adbe57db46cf82f34ed24dbf3494fdf72753e&amp;dn=The+Hunger+Games-Mockingjay+Part+2+2015+720p+HD-TS+x264+AC3+HQ+H&amp;tr=udp%3A%2F%2Ftracker.leechers-paradise.org%3A6969&amp;tr=udp%3A%2F%2Fzer0day.ch%3A1337&amp;tr=udp%3A%2F%2Fopen.demonii.com%3A1337&amp;tr=udp%3A%2F%2Ftracker.coppersurfer.tk%3A6969&amp;tr=udp%3A%2F%2Fexodus.desync.com%3A6969","seeders":11,"leechers":17,"uploader":"makintos13","files":3,"time":1448424733,"description":"screens:\r\n \nhttp://imgmak.com/KKA\r\n \nhttp://imgmak.com/KKD\r\n \nhttp://imgmak.com/KKf\r\n \nhttp://imgmak.com/KKE\r\n \nhttp://imgmak.com/KKh\r\n\r\n:::\r\n\r\n\r\n\r\nThe.Hunger.Games-Mockingjay.Part.2.2015.720p.HD-TS.x264.AC3.HQ.Hive-CM8\r\n\r\nThx Hive\r\n\r\nCM8 Doing It Right The First Time\r\n\r\nSources:\r\n\r\nVideo: Italian 1080p Incoming\r\nAudio: Sweet Line Big Thx to S4NDM4N\r\nbig thx guys\r\n\r\nNotes:\r\n\r\nVery nice quality video as usual,no movements, no flicker, was cammed a bit too much to the right side, but will do just fine\r\n\r\nEncode:\r\n\r\nMovie had cpl darker scenes and daylight were already perfect so i had to cut movie in 20 pieces and adjust brightness and contrast\r\nas well as colours as needed. Movie itself is complete just no rolling endcredits\r\n\r\nAudio as usual a nice line from S4NDM4N, just first 3mins have some slight distortions here and theire,the rest is just fine\r\n\r\ngot very nice\r\nwill do me till retail\r\nenjoy\r\n\r\nVideo: 1280x720 @bitrate 4000-8000\r\nAudio: English Stereo Line 2.0\r\nSample: yes included\r\n \nhttp://www.imdb.com/title/tt1951266/\r\n\r\nGeneral\r\nComplete name: The.Hunger.Games-Mockingjay.Part.2.2015.720p.HD-TS.x264.AC3.HQ.Hive-CM8.mkv\r\nFormat: Matroska\r\nFormat version: Version 2\r\nFile size: 3.72 GiB\r\nDuration: 2h 5mn\r\nOverall bit rate mode: Variable\r\nOverall bit rate: 4 255 Kbps\r\nEncoded date: UTC 2015-11-23 21:06:11\r\nWriting application: mkvmerge v5.6.0 ('Kenya Kane') built on May 27 2012 16:44:04\r\nWriting library: libebml v1.2.3 + libmatroska v1.3.0\r\n\r\nVideo\r\nID: 1\r\nFormat: AVC\r\nFormat/Info: Advanced Video Codec\r\nFormat profile:   \r\nFormat settings, CABAC: Yes\r\nFormat settings, ReFrames: 3 frames\r\nFormat settings, GOP: M=4, N=33\r\nMuxing mode: Header stripping\r\nCodec ID: V_MPEG4/ISO/AVC\r\nDuration: 2h 5mn\r\nBit rate mode: Variable\r\nBit rate: 3 915 Kbps\r\nMaximum bit rate: 8 000 Kbps\r\nWidth: 1 280 pixels\r\nHeight: 720 pixels\r\nDisplay aspect ratio: 16:9\r\nFrame rate mode: Constant\r\nFrame rate: 29.970 fps\r\nStandard: NTSC\r\nColor space: YUV\r\nChroma subsampling: 4:2:0\r\nBit depth: 8 bits\r\nScan type: Progressive\r\nBits/(Pixel*Frame): 0.142\r\nStream size: 3.42 GiB (92%)\r\nLanguage: English\r\nDefault: Yes\r\nForced: No\r\nColor primaries: BT.709\r\nTransfer characteristics: BT.709\r\nMatrix coefficients: BT.709\r\nColor range: Limited\r\n\r\nAudio\r\nID: 2\r\nFormat: AC-3\r\nFormat/Info: Audio Coding 3\r\nMode extension: CM (complete main)\r\nFormat settings, Endianness: Big\r\nMuxing mode: Header stripping\r\nCodec ID: A_AC3\r\nDuration: 2h 5mn\r\nBit rate mode: Constant\r\nBit rate: 256 Kbps\r\nChannel(s): 2 channels\r\nChannel positions: Front: L R\r\nSampling rate: 48.0 KHz\r\nBit depth: 16 bits\r\nCompression mode: Lossy\r\nDelay relative to video: 4ms\r\nStream size: 229 MiB (6%)\r\nLanguage: English\r\nDefault: Yes\r\nForced: Yes\r\n\r\nSince its Hive Cm8 version can be put into HD MOvies","torrent":{"xt":"urn:btih:392adbe57db46cf82f34ed24dbf3494fdf72753e","amp;dn":"The+Hunger+Games-Mockingjay+Part+2+2015+720p+HD-TS+x264+AC3+HQ+H","amp;tr":["udp%3A%2F%2Ftracker.leechers-paradise.org%3A6969","udp%3A%2F%2Fzer0day.ch%3A1337","udp%3A%2F%2Fopen.demonii.com%3A1337","udp%3A%2F%2Ftracker.coppersurfer.tk%3A6969","udp%3A%2F%2Fexodus.desync.com%3A6969"],"infoHash":"392adbe57db46cf82f34ed24dbf3494fdf72753e","infoHashBuffer":{"type":"Buffer","data":[57,42,219,229,125,180,108,248,47,52,237,36,219,243,73,79,223,114,117,62]},"announce":[],"urlList":[]}}